<svg xmlns="http://www.w3.org/2000/svg" id="darwins-cat-logo" viewBox="0 0 850 865">
    <defs>
        <style>
            .c2{fill:#999}
            .c4{fill:#fff}
            .c5{fill:#444}
        </style>
    </defs>
    <path d="m528 83 25 2c6 0 6-1 9-5 65-29 130-60 198-80-1 90-20 178-49 263l63 131c-23 35-47 69-64 106 1 3 44 14 51 16a503 503 0 0 1 86 37l3 3c-47-21-98-31-147-44-1 11-7 20-8 31q26 12 54 22 55 22 100 60l-19-11q-63-34-131-56l-9-4q-1-1-1 2-1 14-5 26 52 28 99 63c18 14 38 32 52 50l7 10c-45-47-103-81-161-110l-7 32c-5 17-5 13-16 25l-15 21c-61 70-114 119-189 173-6 4-21 18-27 18-2 0-17-10-20-12q-125-87-219-208l-12-50c-3-2-21 9-25 11l-48 29q-47 30-89 68l15-19q59-58 134-97l8-3c2-3-7-24-7-29q-65 22-125 52-19 12-39 22 31-25 65-45 46-22 94-40l-8-28-2-2Q73 530 2 559l3-3 30-16q51-26 108-38a998 998 0 0 0-64-108c23-43 42-88 65-131q-20-62-35-125Q95 70 94 0q102 35 200 80c5 3 2 3 0 7h9l2-2 15-2 1 5 1 5q2 57 0 113c19 20 27 32 24 59q-1 9-6 16c3 25 33 1 14-11q-3-17 2-34-10-14-23-27l-2-3 1-121q-6 2-10-1 17-5 35-7l1 82c4 3 1 10-3 12-18 29 32 31 18 2q-4-2-4-5l-2-1V81l2-1-9 1-2-2 10-3 43-2 38 1 16-2 2 2q16 2 33 2zq-1 3-3 2v110q4 11-3 18l-21 24q4 18 1 33c-15 9 1 32 13 17q5-9-4-15c-2-3 0-22 1-23 20-6 35-24 47-41l1-118c1-4-8-3-8-2v119l-32 35c-12 11-14 3-7-7l22-28q-3-60-2-121-5 0-5-3" class="c4"/><path d="M322 84s9 0 11-2v123c0 3 8 9 11 12l14 19-3 13v19l6 6c7 14-14 28-21 14-5-10 2-11 3-18 1-5 2-22 1-28-2-12-17-26-24-35l1-119z"/><path d="m358 79 10-2 1 2v89q2 0 8 7c5 14-10 28-22 18-7-5-8-15-3-21s6-1 6-13z"/><path d="M402 566c7-5 17-11 17-20 0-11-10-35-19-41l-15-7c-8-4-15-16-15-26 0-2 2-8 3-4l3 9q43-14 87-5l15 5 2-2 3-7c3 10-3 23-12 29-5 4-16 6-20 11l-13 25c-5 18 0 20 12 30 19 11 36 20 58 18q32-4 53-27h3q40 10 79 25l22 9-14 47q-12 16-26 29v-75q2-3 2-7-10 1-19-2l5 7q2 48 1 95c-11 6-17 16-26 24q-2-31-1-63l-1-18c0-4 5-6 7-10 5-16-20-29-28-11q-6 16 11 21v95l-24 22v-76l2-2c11-15-13-33-23-15-6 10 1 17 10 20q-2 43 0 85-19 14-36 30c-8 7-26 22-34 27l-4 1-2-99c9-12 24-23 32-35 1-1 7-9 3-9-7 0-40 34-46 41q2 56 1 111l-16 12q-2 3-5 3l-1-33-1-69-3-32h-3l-3 16v25q-2 45-1 90l1 7c-1 2-17-14-21-13l-1-10c-2-35 1-71 0-106l-27-29-18-14c-2 7 6 14 10 19q11 14 25 27l-1 3v99l-4-1-35-28-36-31-1-87c22-2 12-32-7-26-6 1-11 11-9 17l4 6c2 4 1 35 1 43v22l1 13-3-1c-7-6-12-16-21-19v-99c10-3 16-13 9-23-11-17-33 0-26 14l6 6v88q-12-15-28-27v-89q0-5 3-11h-16q0 3 2 5v79l-25-29-12-43c-1-4-5-7-1-9 5-3 20-8 26-10 16-5 54-20 68-22 6-1 4 0 7 3l4 1c28 31 71 27 105 8" class="cls-8"/><path d="M213 122c6 5-7 6-10 2l-3 2-23-3 25 8 1 2 2-1 35 14q13 4-3-7v-3l-12-6v-3l-6-6-48-57 1-1q7 7 16 12l51 39 3 5h4l16 13q6 6 13 7 2 0 3 2v91l-1 5 5 2c9 5 8 21-2 27-12 7-24-10-18-22l4-5v-86l1-3c-2-2-27 27-29 30q-34 45-60 95l-35 71q12 2 23 8c6 1 27 4 31 7l8 10 53 54c8 7 22 19 28 27v3q-8 14-11 31l-2 2h-26l-4-28-4-2-52-52-14-2-1-2-7-1q-7 3-12-2l-3 2q-12-4-26-3l46 23 2 3q11 4 14 15 3 3 3 7l4 1q16 13 27 27 6 1 2-1l-17-24c1-9 8-3 12 1l19 16q4 11 4 21 3 1 0 2l-27 2-51 7q-25-55-61-104 30-67 62-131-19-57-33-116c-14-59-10-75-14-113l3 1q30 29 61 56c11 10 21 23 33 31m406 367c-4-2 3-11 5-12l8-2h1v-2c1-3 18-17 21-20l4-1c4-5 20-21 4-10-10 3-10-4-2-8v-1q12-8 26-12 10-8 19-9l1-3c2 0 24-10 23-11-1-3-19 1-22 2l-3-1c-2 4-11 3-15 3h-3v1l-17 4-57 52h-1v10l-2 19-2 1-27-1q-3-4-3-10-4-9-4-16l-3-8q-5 0-5-2c0-2 14-12 17-14l69-68 7-9c2-2 19-4 24-5l30-10q-25-57-57-110l-18-28a247 247 0 0 0-47-56v89l4 5c7 13-8 30-21 20-9-8-8-25 5-28v-96l4-2q3-4 8-4 27-24 58-48l13-8 22-16h1q-24 31-53 59l-4 6q-10 8-19 18c27-5 53-18 79-26l-5-1-44 6c37-27 66-63 100-94q-5 119-47 230 33 66 62 131-36 50-62 106l-33-6z"/><path d="m372 445-5-13q-7-20-25-34c-26-18-55-5-82-20-22-12-31-30-40-52l-28-14q-7-1-12-6c17 2 34-4 51-5 30-2 72 6 96 23 37 26 43 80 45 121m306-139q1 2-2 3c-12 6-28 10-40 17-10 26-26 51-55 59-27 7-54-5-77 19q-13 17-19 38 1 2-2 2c5-42 7-92 45-119 22-16 63-25 91-24 16 0 32 5 48 6z" class="cls-8"/><path d="m528 83 7 1c1 41-2 83 2 123-2 7-30 34-26 39 16-10 25-28 39-40V86l11-1 1 4-1 119q-16 24-39 39l-9 3-1 18 6 9c5 16-18 26-23 7-3-12 5-12 6-17 2-8-2-21-2-30 4-8 24-25 25-32l-1-10V83zm-95-8v221l7 7c9 16-11 30-22 18-6-6-6-21 4-23l-1-223zm147 425v-2q53 2 106 12c-2 4-8 28-10 29l-32-9q-33-5-64-13c-3-3-3-10 1-12zm-306-2 1 2v11q3 7-5 8c-32 3-62 12-93 18l-11-27 66-9zm179-277V75q6 1 12-1v145s8 4 9 10c2 12-14 23-24 13-6-6-7-19 3-21"/><path d="M402 76v139q2 3 6 5c9 10-3 29-17 23-10-5-12-19-4-25l4-2c1-2-1-8-1-10V77z" class="cls-8"/><path d="M582 529c13 1 34 6 47 9l44 12-7 26c-31-11-64-26-96-32l-1-2q6-6 5-14zm-310 0q5-1 5 1 3 2 3 8l2 6q-47 12-92 31c-4 0-5-10-6-14-1-2-6-9-3-11l34-10c16-3 42-10 57-11m54-288c-13-8-19-22-31-30q-2-61-1-123h11l1 116q15 14 25 30c2 6 3 10-5 7M499 78v90l3 1c15 16-6 35-19 24-7-6-7-18 0-23l4-2V78z"/><path d="M402 566c-33 24-81 24-109-9l4-5 10-4 6 6c25 22 58 20 89 12m162-12-10 9c-33 28-71 27-104 0q23 9 45 9c19-1 30-8 46-17l7-5c3-1 12 3 16 4m132-143 8-1 1 2-17 10c-10 5-20 4-28 12l-31 30-6 1q2 13-7 21v3h-9l2-21-1-5 3-4q18-6 32-21l3 1 23-15q1-8 9-8c1-3 9-7 12-4q5-4 6-1" class="c2"/><path d="M660 434c-1 1-5 6-4 7h5c1-1 10-8 11-3 0 2-11 13-14 14q-2-2 1-5c-4 0-27 24-27 26l1 2c-4 4-3 1-6 3q-6 3-8 11h-3c-6-4 3-5 4-9l1-16c0-1 6-1 8-3l7-5c8-8 13-18 24-22" class="c5"/><path d="m661 80-60 49-8 8-11 3 7-9c13-13 33-29 48-39q11-8 24-12m-439 47 15 9 13 12c0 4-19-4-21-4l-26-11v-2c-1 1-4-7 0-7h11l-1-2zm22-15q3 7-2 7-29-20-54-44c22 13 36 21 56 37m-17 341c4-3 12 5 15 8l1-1c6 7 5 19 6 28h18q-13 2-27 1v-2l-2-14q-1-11-11-18z" class="c2"/><path d="M275 139c-7 3-10-3-15-6l-18-14c2-2-1-6 2-7l15 10q8 10 16 17" class="c2"/><path d="M423 743c0-6-1-42 1-43h6c3 1 2 20 2 24l1 79q-2-2-1-5 2-35 0-68c-1-5-1-14-7-15-3 2 1 24-2 28" class="c4"/><path d="m286 452 2 2-3 6q-3 13-3 28h-9c3-12 4-27 13-36m296 77h-7c4 7-3 10-5 15h-7l-8-4 12-9 1-4zm-310 0c3-1 16-3 19-2l5 9 6 5-10 1q-10 3-11-11-3 1-4-1zm7-31q2-1 4 1 2 9 6 17c-2 2-9 2-11 0-4-4-6-18 1-18" class="c2"/><path d="M321 494c-5-6 4-15 9-9 6 6-4 13-9 9"/><path d="M580 488c-8-1-5-5-6-11l-3-12 2-3q7 12 7 26" class="c2"/><path d="M331 510c6 6-2 15-8 9-6-4 1-14 8-9"/><path d="M279 498c-6 3-2 16 3 18h7l1 2-20 1q2 0 3-2l1-19z" class="cls-11"/><path d="M524 510c5-1 11 2 8 7-6 11-18-4-8-7m-170 0c9-1 7 16-2 11-6-2-3-10 2-11m172-26c7-2 10 12 1 12-6 0-7-10-1-12m0 52c8 7-8 13-12 6-1-4 7-10 12-6"/><path d="m580 517-2-2c-5-1-10 3-8-5 3-8 9-4 10-5v-5c3 5-1 11 0 17" class="c2"/><path d="m277 530 5-1c1 1 2 15 10 13l-10 2q-6-5-5-14" class="c5"/><path d="M498 511q7 0 6 8c-6 10-15-5-6-8m-167 24c8-1 9 12-1 10-6-1-5-9 1-10"/><path d="m503 601 2 1a89 89 0 0 1-151 3v-4q23 0 44-10c7-3 24-14 31-14 5 0 27 14 34 17 15 6 24 7 40 7" class="c4"/><path d="M354 601c18 34 63 51 100 40 17-6 37-21 47-35q2-2 2-5c9 0 11 0 20-2q3-2 2 0c-19 25-40 50-70 59-35 11-71-2-97-25q-15-16-28-34c-1-3 7 2 9 2z" class="c2"/><path d="M261 466q-2 2-2-2-1-7-7-13c-18-20-41-38-59-59l-31-4q-16-5-33-8l7-22c15 8 33 8 49 13 9 2 6 3 12 9l12 10 61 62-7 7z" class="c4"/><path d="m172 402 17 2 2 5c17 17 37 32 52 51q1 4-2 1l-14-8h-3l-23-19-1-3q-15-13-35-19l-1-3q-8-6 1-8z" class="c4"/><path d="M200 431c8 5 19 15 27 22l9 8c3 6 4 19 4 26-3-5-1-14-4-18l-9-7c-3-2-16-16-19-16l-2 4 10 13q6 5 10 13c0 1 1 5-1 4l-5-6-1-2q-8-8-14-18c-4-5-9-12-16-8-7-7-5-7-9-15l-8-7 1-2q8 4 17 2z" class="c5"/><path d="M153 399q3 5 8 6l3 4c7 3 18 6 23 10l13 12-10-6-8 2-10-3q-19-7-37-19c-2-1-15-5-15-7s14-2 17-2zm67 75-31-28q1-4 4-3c10 1 18 18 24 25 1 1 6 3 3 6" class="c2"/><path d="M203 124c-1 3 4 10 0 9q-17-6-36-10 3-3 8-2z" class="c4"/><path d="m153 399 19 3c-6 0-14-1-8 7q-7-2-13-8z" class="c2"/><path d="m719 358 8 22q-31 9-63 11c-20 22-46 41-65 62l-7 10h-1q-3-7-8-12v-1q4 0 7-4c25-22 49-49 73-73z" class="c4"/><path d="M686 402c9-2 13 7 4 10l-12 4q-8 2-12 10l-20 13c-8 5-17 15-26 19q-4 3-9 1c8-10 25-25 34-34q13-10 22-20c4-2 15-3 19-3" class="c4"/><path d="m705 412-9-1v-1q11-3 8-11c9-2 21-7 29-1l-15 9z" class="cls-11"/><path d="M633 475q-3 1-2-3l10-13c6-6 13-14 22-14 1 1-4 6-5 7zm71-76c3 0 3 5 2 6-2 5-6 4-10 6l-6 1c6-4 2-10-4-10z" class="c2"/><path d="M260 332c6 34 47 48 74 26l1 2c0 9-15 17-24 18-31 3-63-14-67-47z" class="c4"/><path d="M279 325c6-1 16 2 12 10-6 12-23 4-18-5zm335 5c-4 33-43 56-75 47-8-2-21-10-19-20 25 24 69 11 74-24z" class="c4"/><path d="M571 325c12-2 16 12 6 16-11 3-19-14-6-16" class="c4"/><path d="m615 318-1 6-17 2q-3-2-2-6z" class="c5"/>
</svg>
